<?xml version="1.0" standalone="no"?>
<!DOCTYPE svg PUBLIC "-//W3C//DTD SVG 20010904//EN"
 "http://www.w3.org/TR/2001/REC-SVG-20010904/DTD/svg10.dtd">
<svg version="1.0" xmlns="http://www.w3.org/2000/svg"
 width="500.000000pt" height="359.000000pt" viewBox="0 0 500.000000 359.000000"
 preserveAspectRatio="xMidYMid meet">
<metadata>
Created by potrace 1.16, written by Peter Selinger 2001-2019
</metadata>
<g transform="translate(0.000000,359.000000) scale(0.100000,-0.100000)"
fill="#000000" stroke="none">
<path d="M3824 3571 c-80 -36 -65 -86 57 -188 84 -70 202 -203 254 -286 50
-79 88 -73 126 20 21 50 24 75 24 174 0 109 -1 118 -28 157 -59 89 -177 142
-316 142 -52 0 -89 -6 -117 -19z"/>
<path d="M3130 3469 c-269 -35 -505 -122 -775 -283 -139 -83 -315 -211 -315
-228 0 -7 19 -8 58 -3 31 4 153 9 270 11 l212 3 60 46 c224 172 486 263 805
280 l110 6 40 -83 c132 -272 360 -514 600 -638 138 -70 365 -130 494 -130 131
0 218 80 196 180 l-7 30 -112 0 c-341 0 -635 130 -876 387 -79 85 -209 267
-246 346 -19 40 -32 46 -145 67 -79 15 -283 20 -369 9z"/>
<path d="M1600 3330 c-454 -3 -818 -8 -810 -12 8 -3 168 -11 355 -18 187 -6
365 -13 395 -15 30 -2 186 -9 345 -15 160 -6 315 -13 345 -15 46 -3 67 2 129
29 41 18 77 38 79 44 2 7 0 11 -5 10 -4 -2 -379 -5 -833 -8z"/>
<path d="M840 3170 c0 -6 33 -10 78 -10 42 0 120 -3 172 -6 52 -3 289 -14 525
-24 l430 -18 44 22 c95 46 96 46 -598 46 -427 0 -651 -3 -651 -10z"/>
<path d="M976 3022 c-9 -15 49 -20 299 -27 121 -3 302 -10 402 -15 165 -8 185
-8 213 8 16 9 30 20 30 25 0 4 -201 7 -447 7 -247 0 -458 3 -469 6 -12 3 -25
1 -28 -4z"/>
<path d="M2053 2863 c-40 -2 -73 -7 -73 -11 0 -5 71 -14 158 -21 420 -34 765
-102 879 -174 53 -34 108 -97 123 -142 17 -52 7 -142 -23 -207 -58 -126 -232
-324 -430 -490 -157 -131 -162 -131 -232 0 -30 56 -60 99 -75 108 -54 29 -107
8 -130 -52 -43 -111 40 -439 141 -564 57 -69 58 -70 102 -70 43 0 49 3 167 83
19 13 86 75 149 138 273 274 590 690 661 869 26 67 25 174 -4 232 -70 145
-306 245 -676 288 -99 11 -611 21 -737 13z"/>
<path d="M2382 2446 c-78 -20 -206 -87 -295 -154 -353 -269 -745 -683 -1086
-1148 l-59 -81 18 -31 c42 -69 125 -81 267 -38 98 30 314 106 328 116 6 4 25
12 43 18 47 16 167 97 186 126 8 14 18 42 22 64 6 36 3 42 -21 58 -24 16 -33
16 -84 5 -82 -19 -167 -25 -175 -13 -12 20 456 554 645 737 110 106 169 147
241 166 124 34 219 -55 265 -248 9 -40 20 -73 24 -73 13 0 22 130 15 215 -10
136 -48 218 -122 261 -54 32 -136 39 -212 20z"/>
<path d="M740 2311 c-351 -50 -646 -328 -725 -684 -22 -99 -16 -293 13 -420
51 -221 196 -415 400 -536 138 -83 286 -121 463 -121 145 0 258 26 381 88 101
51 237 149 238 170 0 10 -10 8 -32 -8 -55 -36 -169 -87 -233 -104 -378 -97
-780 119 -906 487 -59 174 -59 344 1 508 42 116 93 193 192 291 97 96 194 151
330 187 199 53 403 25 579 -79 37 -22 70 -40 74 -40 9 0 -62 67 -114 107 -62
48 -186 109 -273 134 -81 23 -289 34 -388 20z"/>
<path d="M3955 2303 c-165 -35 -325 -122 -445 -243 -110 -110 -179 -228 -225
-386 -31 -105 -44 -268 -27 -347 6 -29 15 -79 21 -112 14 -80 106 -262 173
-345 119 -145 299 -257 483 -301 178 -43 398 -23 558 49 166 76 310 201 370
322 30 60 32 72 31 165 -1 122 -18 162 -105 247 -75 72 -122 99 -354 198 -105
45 -209 92 -231 105 -87 51 -120 122 -91 196 12 30 12 39 3 39 -24 0 -59 -94
-58 -153 2 -103 59 -170 219 -257 187 -103 300 -194 348 -282 27 -47 30 -63
30 -138 0 -142 -54 -225 -190 -290 -66 -31 -189 -60 -260 -60 -71 0 -194 29
-260 60 -167 80 -319 273 -372 470 -24 90 -24 300 1 390 25 91 76 195 135 270
60 79 172 172 243 205 165 75 382 104 530 71 75 -17 195 -68 250 -107 34 -24
53 -16 22 9 -12 9 -45 36 -73 60 -102 82 -221 137 -364 167 -87 19 -271 18
-362 -2z"/>
<path d="M149 291 c-67 -21 -109 -77 -109 -146 0 -47 35 -112 69 -129 43 -23
128 -21 169 4 37 23 40 39 12 65 -18 16 -20 16 -46 -4 -59 -46 -134 -9 -134
67 0 45 21 69 69 78 25 5 39 2 63 -16 l30 -22 25 25 26 25 -39 25 c-44 29 -97
40 -135 28z"/>
<path d="M3930 289 c-127 -38 -147 -214 -30 -274 44 -23 132 -19 164 6 50 39
74 120 40 133 -20 8 -98 8 -118 0 -10 -4 -16 -18 -16 -35 0 -27 3 -29 38 -29
35 -1 36 -2 18 -15 -32 -24 -74 -18 -107 14 -35 36 -37 70 -5 108 30 34 92 39
126 8 20 -18 21 -18 42 2 25 26 19 47 -19 67 -41 21 -92 26 -133 15z"/>
<path d="M4445 280 c-53 -27 -77 -63 -83 -123 -9 -96 50 -157 151 -157 49 0
61 4 92 31 45 40 62 95 47 148 -16 51 -48 90 -88 107 -45 19 -72 18 -119 -6z
m99 -61 c50 -23 58 -112 13 -144 -52 -36 -127 2 -127 65 0 70 53 107 114 79z"/>
<path d="M330 279 c0 -6 18 -45 41 -87 34 -66 39 -83 34 -118 -8 -55 1 -74 35
-74 34 0 43 19 34 75 -5 37 -1 52 35 117 23 41 41 80 41 86 0 7 -15 12 -33 12
-30 0 -36 -5 -52 -40 -10 -22 -21 -40 -25 -40 -4 0 -15 18 -25 40 -16 35 -22
40 -52 40 -18 0 -33 -5 -33 -11z"/>
<path d="M632 270 c-34 -21 -72 -87 -72 -125 0 -38 38 -104 72 -125 45 -27
131 -27 176 0 37 23 40 39 12 65 -18 16 -20 16 -35 1 -33 -33 -97 -33 -129 0
-10 9 -16 33 -16 59 0 35 5 48 26 64 34 27 74 27 108 0 26 -20 28 -20 46 -4
28 26 25 42 -12 65 -45 27 -131 27 -176 0z"/>
<path d="M876 274 c-3 -9 -6 -74 -6 -145 l0 -129 75 0 75 0 0 35 c0 34 -1 35
-41 35 l-42 0 6 62 c3 35 3 84 0 110 -5 44 -8 48 -33 48 -16 0 -30 -7 -34 -16z"/>
<path d="M1040 145 l0 -145 86 0 85 0 -3 33 c-3 31 -5 32 -50 35 -43 3 -48 5
-48 28 0 22 4 24 50 24 l50 0 0 35 0 35 -50 0 c-38 0 -50 4 -50 15 0 11 12 15
50 15 l50 0 0 35 0 35 -85 0 -85 0 0 -145z"/>
<path d="M2415 278 c-3 -7 -13 -40 -23 -73 l-18 -59 -13 67 -13 67 -204 0
-204 0 0 -140 0 -140 85 0 85 0 0 35 0 35 -50 0 c-47 0 -50 2 -50 25 0 23 3
25 50 25 l50 0 0 35 0 35 -50 0 c-38 0 -50 4 -50 15 0 12 15 15 75 15 l75 0 0
-110 0 -110 35 0 35 0 0 110 c0 110 0 110 24 110 13 0 26 5 28 11 2 7 12 -26
22 -72 34 -162 33 -161 69 -157 30 3 32 6 52 76 l21 73 13 -53 c22 -84 31 -98
62 -98 32 0 36 10 68 162 28 130 28 130 -11 126 -31 -3 -33 -5 -47 -73 l-15
-70 -21 70 c-18 63 -23 70 -48 73 -16 2 -29 -2 -32 -10z"/>
<path d="M2693 270 c-61 -37 -85 -116 -55 -183 28 -63 66 -87 140 -87 66 0
101 19 127 70 19 38 19 113 0 151 -35 66 -143 91 -212 49z m132 -65 c36 -35
35 -96 -1 -124 -35 -27 -66 -27 -99 2 -39 33 -39 91 -1 123 35 31 70 30 101
-1z"/>
<path d="M2960 146 l0 -146 35 0 35 0 0 47 0 48 24 -45 c21 -39 29 -45 60 -48
20 -2 36 0 36 5 -1 4 -13 32 -29 62 l-28 53 24 24 c30 30 30 75 -1 110 -20 24
-32 28 -90 32 l-66 4 0 -146z"/>
<path d="M4160 144 l0 -145 33 3 c31 3 32 4 31 51 l0 47 25 -47 c23 -43 30
-48 65 -51 21 -2 36 0 34 5 -1 4 -16 32 -31 60 l-27 53 20 20 c14 14 20 33 20
64 0 62 -31 86 -111 86 l-59 0 0 -146z"/>
<path d="M4670 282 c0 -5 14 -69 30 -142 17 -73 30 -134 30 -136 0 -2 15 -4
34 -4 34 0 34 0 51 70 9 39 19 70 21 70 2 0 13 -31 24 -70 20 -68 22 -70 53
-70 l32 0 28 123 c35 155 34 157 -3 157 -26 0 -30 -5 -40 -42 -16 -61 -28 -95
-29 -80 -1 8 -8 38 -17 69 -15 52 -17 54 -47 51 -30 -3 -33 -7 -47 -60 -8 -32
-17 -58 -20 -58 -3 0 -12 27 -18 60 -10 48 -17 60 -32 60 -10 0 -25 3 -34 6
-9 3 -16 2 -16 -4z"/>
<path d="M1670 140 l0 -140 30 0 30 0 0 78 0 77 51 -77 c48 -72 54 -78 85 -78
l34 0 0 140 0 140 -35 0 -34 0 -3 -76 -3 -75 -45 75 c-41 70 -47 76 -77 76
l-33 0 0 -140z"/>
<path d="M3178 213 c-2 -38 -2 -101 0 -141 l5 -73 31 3 c30 3 31 5 31 51 0 26
1 47 2 47 1 0 15 -22 32 -50 29 -47 34 -50 71 -50 22 0 40 2 40 5 0 3 -23 39
-50 80 l-50 75 45 57 45 58 -41 3 c-31 2 -45 -1 -54 -15 -42 -58 -42 -58 -37
-19 4 35 3 36 -31 36 l-35 0 -4 -67z"/>
</g>
</svg>
